<?xml version="1.0" encoding="UTF-8" standalone="no"?>
<!DOCTYPE svg PUBLIC "-//W3C//DTD SVG 1.1//EN"
 "http://www.w3.org/Graphics/SVG/1.1/DTD/svg11.dtd">
<!-- Generated by graphviz version 2.43.0 (0)
 -->
<!-- Title: G Pages: 1 -->
<svg width="1393pt" height="740pt"
 viewBox="0.00 0.00 1393.00 740.00" xmlns="http://www.w3.org/2000/svg" xmlns:xlink="http://www.w3.org/1999/xlink">
<g id="graph0" class="graph" transform="scale(1 1) rotate(0) translate(4 736)">
<title>G</title>
<polygon fill="#b2dfee" stroke="transparent" points="-4,4 -4,-736 1389,-736 1389,4 -4,4"/>
<g id="clust1" class="cluster">
<title>cluster_1</title>
<polygon fill="mintcream" stroke="indigo" points="8,-8 8,-724 1377,-724 1377,-8 8,-8"/>
<text text-anchor="middle" x="692.5" y="-708.8" font-family="Times,serif" font-size="14.00">Imp #1</text>
</g>
<g id="clust2" class="cluster">
<title>cluster_6</title>
<polygon fill="mintcream" stroke="indigo" points="306,-16 306,-693 1369,-693 1369,-16 306,-16"/>
<text text-anchor="middle" x="837.5" y="-677.8" font-family="Times,serif" font-size="14.00">Imp #6</text>
</g>
<g id="clust3" class="cluster">
<title>cluster_7</title>
<polygon fill="lightgrey" stroke="yellow" points="314,-24 314,-599 1361,-599 1361,-24 314,-24"/>
<text text-anchor="middle" x="837.5" y="-583.8" font-family="Times,serif" font-size="14.00">Expr #7</text>
</g>
<g id="clust4" class="cluster">
<title>cluster_9</title>
<polygon fill="lightgrey" stroke="yellow" points="1000,-308 1000,-491 1124,-491 1124,-308 1000,-308"/>
<text text-anchor="middle" x="1062" y="-475.8" font-family="Times,serif" font-size="14.00">Expr #9</text>
</g>
<g id="clust5" class="cluster">
<title>cluster_12</title>
<polygon fill="mintcream" stroke="indigo" points="322,-32 322,-491 992,-491 992,-32 322,-32"/>
<text text-anchor="middle" x="657" y="-475.8" font-family="Times,serif" font-size="14.00">Imp #12</text>
</g>
<g id="clust6" class="cluster">
<title>cluster_14</title>
<polygon fill="lightgrey" stroke="yellow" points="330,-40 330,-275 573,-275 573,-40 330,-40"/>
<text text-anchor="middle" x="451.5" y="-259.8" font-family="Times,serif" font-size="14.00">Expr #14</text>
</g>
<g id="clust7" class="cluster">
<title>cluster_19</title>
<polygon fill="lightgrey" stroke="yellow" points="767,-113 767,-383 984,-383 984,-113 767,-113"/>
<text text-anchor="middle" x="875.5" y="-367.8" font-family="Times,serif" font-size="14.00">Expr #19</text>
</g>
<g id="clust8" class="cluster">
<title>cluster_24</title>
<polygon fill="lightgrey" stroke="yellow" points="1132,-113 1132,-491 1353,-491 1353,-113 1132,-113"/>
<text text-anchor="middle" x="1242.5" y="-475.8" font-family="Times,serif" font-size="14.00">Expr #24</text>
</g>
<!-- nEntryPoint -->
<g id="node1" class="node">
<title>nEntryPoint</title>
<polygon fill="lightgreen" stroke="blue" points="117.34,-638.44 160,-626 202.66,-638.44 202.62,-658.56 117.38,-658.56 117.34,-638.44"/>
<text text-anchor="middle" x="160" y="-640.3" font-family="Times,serif" font-size="14.00">Main</text>
</g>
<!-- 1 -->
<g id="node2" class="node">
<title>1</title>
<polygon fill="lightcyan" stroke="indigo" points="226.91,-568 120.47,-568 93.09,-532 199.53,-532 226.91,-568"/>
<text text-anchor="middle" x="160" y="-546.3" font-family="Times,serif" font-size="14.00">Imp #1</text>
</g>
<!-- nEntryPoint&#45;&gt;1 -->
<g id="edge1" class="edge">
<title>nEntryPoint&#45;&gt;1</title>
<path fill="none" stroke="darkblue" stroke-dasharray="5,2" d="M160,-615.69C160,-603.92 160,-590.17 160,-578.39"/>
<polygon fill="darkblue" stroke="darkblue" points="156.5,-615.7 160,-625.7 163.5,-615.7 156.5,-615.7"/>
<polygon fill="darkblue" stroke="darkblue" points="163.5,-578.23 160,-568.23 156.5,-578.23 163.5,-578.23"/>
</g>
<!-- 2 -->
<g id="node3" class="node">
<title>2</title>
<polygon fill="papayawhip" stroke="black" points="201.5,-460 66.5,-460 66.5,-424 207.5,-424 207.5,-454 201.5,-460"/>
<polyline fill="none" stroke="black" points="201.5,-460 201.5,-454 "/>
<polyline fill="none" stroke="black" points="207.5,-454 201.5,-454 "/>
<text text-anchor="middle" x="137" y="-438.3" font-family="Times,serif" font-size="14.00">Variable&lt;result&gt;</text>
</g>
<!-- 1&#45;&gt;2 -->
<g id="edge4" class="edge">
<title>1&#45;&gt;2</title>
<path fill="none" stroke="indigo" d="M156.3,-531.97C152.69,-515.3 147.12,-489.65 142.89,-470.16"/>
<polygon fill="indigo" stroke="indigo" points="146.3,-469.37 140.76,-460.34 139.46,-470.86 146.3,-469.37"/>
</g>
<!-- 3 -->
<g id="node4" class="node">
<title>3</title>
<polygon fill="ivory" stroke="black" points="124,-352 16,-352 16,-316 124,-316 124,-352"/>
<text text-anchor="middle" x="70" y="-330.3" font-family="Times,serif" font-size="14.00">Number&lt;1&gt;</text>
</g>
<!-- 2&#45;&gt;3 -->
<g id="edge3" class="edge">
<title>2&#45;&gt;3</title>
<path fill="none" stroke="darkblue" d="M121.12,-423.97C108.58,-407.07 91.79,-380.94 80.73,-361.36"/>
<polygon fill="darkblue" stroke="darkblue" points="83.68,-359.44 75.81,-352.34 77.53,-362.8 83.68,-359.44"/>
</g>
<!-- 4 -->
<g id="node5" class="node">
<title>4</title>
<polygon fill="papayawhip" stroke="black" points="291.5,-352 142.5,-352 142.5,-316 297.5,-316 297.5,-346 291.5,-352"/>
<polyline fill="none" stroke="black" points="291.5,-352 291.5,-346 "/>
<polyline fill="none" stroke="black" points="297.5,-346 291.5,-346 "/>
<text text-anchor="middle" x="220" y="-330.3" font-family="Times,serif" font-size="14.00">Variable&lt;number&gt;</text>
</g>
<!-- 2&#45;&gt;4 -->
<g id="edge7" class="edge">
<title>2&#45;&gt;4</title>
<path fill="none" stroke="indigo" d="M150.34,-423.97C163.81,-406.76 184.78,-379.98 200.19,-360.29"/>
<polygon fill="indigo" stroke="indigo" points="203.01,-362.37 206.42,-352.34 197.5,-358.06 203.01,-362.37"/>
</g>
<!-- 3&#45;&gt;2 -->
<g id="edge2" class="edge">
<title>3&#45;&gt;2</title>
<path fill="none" stroke="darkgreen" d="M86.11,-352.34C98.71,-369.35 115.49,-395.5 126.47,-415"/>
<polygon fill="darkgreen" stroke="darkgreen" points="123.5,-416.86 131.35,-423.97 129.64,-413.51 123.5,-416.86"/>
</g>
<!-- 5 -->
<g id="node6" class="node">
<title>5</title>
<polygon fill="ivory" stroke="black" points="278.5,-244 161.5,-244 161.5,-208 278.5,-208 278.5,-244"/>
<text text-anchor="middle" x="220" y="-222.3" font-family="Times,serif" font-size="14.00">Number&lt;20&gt;</text>
</g>
<!-- 4&#45;&gt;5 -->
<g id="edge6" class="edge">
<title>4&#45;&gt;5</title>
<path fill="none" stroke="darkblue" d="M214.89,-315.97C213.06,-299.38 212.76,-273.88 214,-254.43"/>
<polygon fill="darkblue" stroke="darkblue" points="217.5,-254.6 214.85,-244.34 210.53,-254.01 217.5,-254.6"/>
</g>
<!-- 6 -->
<g id="node7" class="node">
<title>6</title>
<polygon fill="lightcyan" stroke="indigo" points="697.91,-662 591.47,-662 564.09,-626 670.53,-626 697.91,-662"/>
<text text-anchor="middle" x="631" y="-640.3" font-family="Times,serif" font-size="14.00">Imp #6</text>
</g>
<!-- 4&#45;&gt;6 -->
<g id="edge40" class="edge">
<title>4&#45;&gt;6</title>
<path fill="none" stroke="indigo" d="M220,-352.03C221,-399.82 230.98,-535.76 310,-599 351.33,-632.07 489.28,-618.17 554.37,-625.4"/>
<polygon fill="indigo" stroke="indigo" points="554.15,-628.9 564.54,-626.82 555.12,-621.97 554.15,-628.9"/>
</g>
<!-- 5&#45;&gt;4 -->
<g id="edge5" class="edge">
<title>5&#45;&gt;4</title>
<path fill="none" stroke="darkgreen" d="M225.15,-244.34C226.96,-261.04 227.23,-286.55 225.97,-305.93"/>
<polygon fill="darkgreen" stroke="darkgreen" points="222.48,-305.71 225.11,-315.97 229.45,-306.3 222.48,-305.71"/>
</g>
<!-- 6&#45;&gt;1 -->
<g id="edge41" class="edge">
<title>6&#45;&gt;1</title>
<path fill="none" stroke="green" d="M564.55,-626.71C563.02,-626.46 561.5,-626.22 560,-626 490.19,-615.74 309.77,-630.81 243,-608 222.2,-600.89 201.82,-587.02 186.45,-574.74"/>
<polygon fill="green" stroke="green" points="188.4,-571.81 178.46,-568.14 183.94,-577.2 188.4,-571.81"/>
</g>
<!-- 7 -->
<g id="node8" class="node">
<title>7</title>
<polygon fill="lightyellow" stroke="yellow" points="943,-562 901,-562 901,-538 943,-538 955,-550 943,-562"/>
<text text-anchor="middle" x="928" y="-546.3" font-family="Times,serif" font-size="14.00">#7 ?</text>
</g>
<!-- 6&#45;&gt;7 -->
<g id="edge38" class="edge">
<title>6&#45;&gt;7</title>
<path fill="none" stroke="indigo" d="M675.01,-631.85C708.52,-623.77 755.9,-613.21 798,-607 819.84,-603.78 878.06,-610.33 897,-599 905.5,-593.91 912.09,-585.49 916.96,-577.11"/>
<polygon fill="indigo" stroke="indigo" points="920.09,-578.68 921.58,-568.19 913.88,-575.46 920.09,-578.68"/>
</g>
<!-- 7&#45;&gt;6 -->
<g id="edge39" class="edge">
<title>7&#45;&gt;6</title>
<path fill="none" stroke="green" d="M921.16,-568.35C916.09,-578.9 908.11,-591.71 897,-599 863.96,-620.68 758.81,-632.9 691.03,-638.71"/>
<polygon fill="green" stroke="green" points="690.57,-635.23 680.9,-639.55 691.15,-642.21 690.57,-635.23"/>
</g>
<!-- 9 -->
<g id="node9" class="node">
<title>9</title>
<polygon fill="lightyellow" stroke="yellow" points="1050,-454 1008,-454 1008,-430 1050,-430 1062,-442 1050,-454"/>
<text text-anchor="middle" x="1035" y="-438.3" font-family="Times,serif" font-size="14.00">#9 &gt;</text>
</g>
<!-- 7&#45;&gt;9 -->
<g id="edge11" class="edge">
<title>7&#45;&gt;9</title>
<path fill="none" stroke="black" stroke-dasharray="5,2" d="M942.68,-523.21C948.86,-514.39 956.76,-505.19 966,-499 977.46,-491.31 984.42,-498.5 996,-491 1004.83,-485.28 1012.61,-476.91 1018.86,-468.76"/>
<polygon fill="black" stroke="black" points="939.62,-521.49 937.1,-531.78 945.49,-525.31 939.62,-521.49"/>
<polygon fill="black" stroke="black" points="1021.82,-470.63 1024.79,-460.45 1016.13,-466.56 1021.82,-470.63"/>
<text text-anchor="middle" x="996" y="-502.8" font-family="Times,serif" font-size="14.00">#7 cond</text>
</g>
<!-- 12 -->
<g id="node11" class="node">
<title>12</title>
<polygon fill="lightcyan" stroke="indigo" points="963.07,-460 843.65,-460 812.93,-424 932.35,-424 963.07,-460"/>
<text text-anchor="middle" x="888" y="-438.3" font-family="Times,serif" font-size="14.00">Imp #12</text>
</g>
<!-- 7&#45;&gt;12 -->
<g id="edge29" class="edge">
<title>7&#45;&gt;12</title>
<path fill="none" stroke="black" stroke-dasharray="5,2" d="M895.62,-524.43C892.98,-521.2 890.69,-517.71 889,-514 882.88,-500.54 882.28,-484.11 883.36,-470.44"/>
<polygon fill="black" stroke="black" points="893.29,-527.06 902.72,-531.88 898.36,-522.23 893.29,-527.06"/>
<polygon fill="black" stroke="black" points="886.87,-470.52 884.52,-460.19 879.92,-469.73 886.87,-470.52"/>
<text text-anchor="middle" x="918" y="-502.8" font-family="Times,serif" font-size="14.00">#7 then</text>
</g>
<!-- 24 -->
<g id="node21" class="node">
<title>24</title>
<polygon fill="lightyellow" stroke="yellow" points="1214,-454 1140,-454 1140,-430 1214,-430 1226,-442 1214,-454"/>
<text text-anchor="middle" x="1183" y="-438.3" font-family="Times,serif" font-size="14.00">#24 print</text>
</g>
<!-- 7&#45;&gt;24 -->
<g id="edge37" class="edge">
<title>7&#45;&gt;24</title>
<path fill="none" stroke="black" stroke-dasharray="5,2" d="M965.29,-543.19C1006.92,-535.6 1075.35,-519.76 1128,-491 1139.47,-484.74 1150.62,-475.73 1159.86,-467.21"/>
<polygon fill="black" stroke="black" points="964.56,-539.77 955.31,-544.95 965.77,-546.66 964.56,-539.77"/>
<polygon fill="black" stroke="black" points="1162.33,-469.68 1167.12,-460.23 1157.48,-464.63 1162.33,-469.68"/>
<text text-anchor="middle" x="1134.5" y="-502.8" font-family="Times,serif" font-size="14.00">#7 else</text>
</g>
<!-- 9&#45;&gt;7 -->
<!-- 11 -->
<g id="node10" class="node">
<title>11</title>
<polygon fill="ivory" stroke="black" points="1116,-352 1008,-352 1008,-316 1116,-316 1116,-352"/>
<text text-anchor="middle" x="1062" y="-330.3" font-family="Times,serif" font-size="14.00">Number&lt;0&gt;</text>
</g>
<!-- 9&#45;&gt;11 -->
<g id="edge9" class="edge">
<title>9&#45;&gt;11</title>
<path fill="none" stroke="black" stroke-dasharray="5,2" d="M1027.14,-413.65C1026.09,-406.22 1025.98,-398.23 1028,-391 1030.94,-380.48 1036.46,-369.98 1042.21,-360.96"/>
<polygon fill="black" stroke="black" points="1023.74,-414.51 1029.12,-423.64 1030.61,-413.15 1023.74,-414.51"/>
<polygon fill="black" stroke="black" points="1045.23,-362.73 1047.94,-352.48 1039.44,-358.8 1045.23,-362.73"/>
<text text-anchor="middle" x="1042" y="-394.8" font-family="Times,serif" font-size="14.00">9, 0</text>
</g>
<!-- 11&#45;&gt;9 -->
<!-- 12&#45;&gt;9 -->
<!-- 13 -->
<g id="node12" class="node">
<title>13</title>
<polygon fill="papayawhip" stroke="black" points="556.5,-352 421.5,-352 421.5,-316 562.5,-316 562.5,-346 556.5,-352"/>
<polyline fill="none" stroke="black" points="556.5,-352 556.5,-346 "/>
<polyline fill="none" stroke="black" points="562.5,-346 556.5,-346 "/>
<text text-anchor="middle" x="492" y="-330.3" font-family="Times,serif" font-size="14.00">Variable&lt;result&gt;</text>
</g>
<!-- 12&#45;&gt;13 -->
<g id="edge18" class="edge">
<title>12&#45;&gt;13</title>
<path fill="none" stroke="indigo" d="M813.2,-424.64C811.79,-424.41 810.39,-424.2 809,-424 757.83,-416.54 624.89,-425.5 577,-406 552.36,-395.97 529.53,-376.04 513.74,-359.84"/>
<polygon fill="indigo" stroke="indigo" points="515.99,-357.13 506.58,-352.25 510.9,-361.93 515.99,-357.13"/>
</g>
<!-- 14 -->
<g id="node13" class="node">
<title>14</title>
<polygon fill="lightyellow" stroke="yellow" points="502,-238 456,-238 456,-214 502,-214 514,-226 502,-238"/>
<text text-anchor="middle" x="485" y="-222.3" font-family="Times,serif" font-size="14.00">#14 *</text>
</g>
<!-- 13&#45;&gt;14 -->
<g id="edge17" class="edge">
<title>13&#45;&gt;14</title>
<path fill="none" stroke="darkblue" d="M490.88,-315.97C489.78,-299.38 488.1,-273.88 486.81,-254.43"/>
<polygon fill="darkblue" stroke="darkblue" points="490.3,-254.09 486.15,-244.34 483.31,-254.55 490.3,-254.09"/>
</g>
<!-- 18 -->
<g id="node16" class="node">
<title>18</title>
<polygon fill="papayawhip" stroke="black" points="750.5,-244 601.5,-244 601.5,-208 756.5,-208 756.5,-238 750.5,-244"/>
<polyline fill="none" stroke="black" points="750.5,-244 750.5,-238 "/>
<polyline fill="none" stroke="black" points="756.5,-238 750.5,-238 "/>
<text text-anchor="middle" x="679" y="-222.3" font-family="Times,serif" font-size="14.00">Variable&lt;number&gt;</text>
</g>
<!-- 13&#45;&gt;18 -->
<g id="edge25" class="edge">
<title>13&#45;&gt;18</title>
<path fill="none" stroke="indigo" d="M522.04,-315.97C553.98,-297.86 604.63,-269.16 639.71,-249.27"/>
<polygon fill="indigo" stroke="indigo" points="641.75,-252.14 648.72,-244.16 638.29,-246.05 641.75,-252.14"/>
</g>
<!-- 14&#45;&gt;13 -->
<g id="edge16" class="edge">
<title>14&#45;&gt;13</title>
<path fill="none" stroke="darkgreen" d="M486.15,-244.34C487.25,-261.04 488.93,-286.55 490.21,-305.93"/>
<polygon fill="darkgreen" stroke="darkgreen" points="486.72,-306.22 490.88,-315.97 493.71,-305.76 486.72,-306.22"/>
</g>
<!-- 16 -->
<g id="node14" class="node">
<title>16</title>
<polygon fill="ivory" stroke="black" points="538,-84 418,-84 418,-48 538,-48 538,-84"/>
<text text-anchor="middle" x="478" y="-62.3" font-family="Times,serif" font-size="14.00">Ident&lt;result&gt;</text>
</g>
<!-- 14&#45;&gt;16 -->
<g id="edge13" class="edge">
<title>14&#45;&gt;16</title>
<path fill="none" stroke="black" stroke-dasharray="5,2" d="M446.98,-204.65C412.73,-186.14 367.39,-161.1 365,-157 355.15,-140.1 354.09,-129.23 365,-113 375.22,-97.8 391.44,-87.62 408.42,-80.8"/>
<polygon fill="black" stroke="black" points="445.4,-207.77 455.86,-209.44 448.72,-201.61 445.4,-207.77"/>
<polygon fill="black" stroke="black" points="409.71,-84.06 417.91,-77.35 407.31,-77.48 409.71,-84.06"/>
<text text-anchor="middle" x="383.5" y="-135.3" font-family="Times,serif" font-size="14.00">14, 0</text>
</g>
<!-- 17 -->
<g id="node15" class="node">
<title>17</title>
<polygon fill="ivory" stroke="black" points="545,-157 411,-157 411,-121 545,-121 545,-157"/>
<text text-anchor="middle" x="478" y="-135.3" font-family="Times,serif" font-size="14.00">Ident&lt;number&gt;</text>
</g>
<!-- 14&#45;&gt;17 -->
<g id="edge15" class="edge">
<title>14&#45;&gt;17</title>
<path fill="none" stroke="black" stroke-dasharray="5,2" d="M482.75,-197.73C481.95,-187.96 481.04,-176.94 480.24,-167.17"/>
<polygon fill="black" stroke="black" points="479.27,-198.12 483.58,-207.8 486.25,-197.55 479.27,-198.12"/>
<polygon fill="black" stroke="black" points="483.72,-166.85 479.41,-157.18 476.75,-167.43 483.72,-166.85"/>
<text text-anchor="middle" x="499.5" y="-178.8" font-family="Times,serif" font-size="14.00">14, 1</text>
</g>
<!-- 16&#45;&gt;14 -->
<!-- 17&#45;&gt;16 -->
<!-- 19 -->
<g id="node17" class="node">
<title>19</title>
<polygon fill="lightyellow" stroke="yellow" points="819,-346 775,-346 775,-322 819,-322 831,-334 819,-346"/>
<text text-anchor="middle" x="803" y="-330.3" font-family="Times,serif" font-size="14.00">#19 &#45;</text>
</g>
<!-- 18&#45;&gt;19 -->
<g id="edge24" class="edge">
<title>18&#45;&gt;19</title>
<path fill="none" stroke="darkblue" d="M689.57,-244C700.39,-260.07 718.61,-283.79 740,-298 752.06,-306.01 758.21,-301.22 771,-308 772.32,-308.7 773.65,-309.46 774.96,-310.26"/>
<polygon fill="darkblue" stroke="darkblue" points="773.18,-313.28 783.43,-315.99 777.11,-307.48 773.18,-313.28"/>
</g>
<!-- 23 -->
<g id="node20" class="node">
<title>23</title>
<polygon fill="ivory" stroke="black" points="671,-157 617,-157 617,-121 671,-121 671,-157"/>
<text text-anchor="middle" x="644" y="-135.3" font-family="Times,serif" font-size="14.00">Loop</text>
</g>
<!-- 18&#45;&gt;23 -->
<g id="edge26" class="edge">
<title>18&#45;&gt;23</title>
<path fill="none" stroke="indigo" d="M671.92,-207.8C667.03,-195.93 660.44,-179.93 654.89,-166.45"/>
<polygon fill="indigo" stroke="indigo" points="658.12,-165.09 651.07,-157.18 651.64,-167.75 658.12,-165.09"/>
</g>
<!-- 19&#45;&gt;18 -->
<g id="edge23" class="edge">
<title>19&#45;&gt;18</title>
<path fill="none" stroke="darkgreen" d="M783.08,-315.97C762.5,-298.38 730.22,-270.78 707.06,-250.99"/>
<polygon fill="darkgreen" stroke="darkgreen" points="709.16,-248.18 699.29,-244.34 704.61,-253.5 709.16,-248.18"/>
</g>
<!-- 21 -->
<g id="node18" class="node">
<title>21</title>
<polygon fill="ivory" stroke="black" points="969,-157 835,-157 835,-121 969,-121 969,-157"/>
<text text-anchor="middle" x="902" y="-135.3" font-family="Times,serif" font-size="14.00">Ident&lt;number&gt;</text>
</g>
<!-- 19&#45;&gt;21 -->
<g id="edge20" class="edge">
<title>19&#45;&gt;21</title>
<path fill="none" stroke="black" stroke-dasharray="5,2" d="M795.72,-305.85C790.15,-279.28 785.87,-238.48 802,-208 812.56,-188.06 831.87,-172.87 850.74,-161.97"/>
<polygon fill="black" stroke="black" points="792.31,-306.65 797.96,-315.62 799.13,-305.09 792.31,-306.65"/>
<polygon fill="black" stroke="black" points="852.53,-164.98 859.63,-157.11 849.18,-158.83 852.53,-164.98"/>
<text text-anchor="middle" x="820.5" y="-222.3" font-family="Times,serif" font-size="14.00">19, 0</text>
</g>
<!-- 22 -->
<g id="node19" class="node">
<title>22</title>
<polygon fill="ivory" stroke="black" points="956,-244 848,-244 848,-208 956,-208 956,-244"/>
<text text-anchor="middle" x="902" y="-222.3" font-family="Times,serif" font-size="14.00">Number&lt;1&gt;</text>
</g>
<!-- 19&#45;&gt;22 -->
<g id="edge22" class="edge">
<title>19&#45;&gt;22</title>
<path fill="none" stroke="black" stroke-dasharray="5,2" d="M825.81,-308.58C841.72,-291.54 862.88,-268.89 878.86,-251.77"/>
<polygon fill="black" stroke="black" points="823.17,-306.27 818.91,-315.97 828.29,-311.05 823.17,-306.27"/>
<polygon fill="black" stroke="black" points="881.54,-254.04 885.8,-244.34 876.42,-249.26 881.54,-254.04"/>
<text text-anchor="middle" x="867.5" y="-286.8" font-family="Times,serif" font-size="14.00">19, 1</text>
</g>
<!-- 21&#45;&gt;19 -->
<!-- 22&#45;&gt;21 -->
<!-- 23&#45;&gt;12 -->
<g id="edge27" class="edge">
<title>23&#45;&gt;12</title>
<path fill="none" stroke="green" d="M626.1,-157.16C614.17,-169.9 599.53,-188.4 593,-208 583.58,-236.25 578.66,-248.9 593,-275 636.72,-354.57 735.1,-398.55 806.25,-420.93"/>
<polygon fill="green" stroke="green" points="805.51,-424.36 816.1,-423.94 807.56,-417.67 805.51,-424.36"/>
</g>
<!-- 24&#45;&gt;12 -->
<!-- 26 -->
<g id="node22" class="node">
<title>26</title>
<polygon fill="ivory" stroke="black" points="1330,-157 1172,-157 1172,-121 1330,-121 1330,-157"/>
<text text-anchor="middle" x="1251" y="-135.3" font-family="Times,serif" font-size="14.00">String&lt;Factorial: &gt;</text>
</g>
<!-- 24&#45;&gt;26 -->
<g id="edge31" class="edge">
<title>24&#45;&gt;26</title>
<path fill="none" stroke="black" stroke-dasharray="5,2" d="M1172.5,-414.17C1161.53,-382.75 1146.95,-329.11 1155,-283 1161.09,-248.1 1162.91,-237.84 1182,-208 1192.61,-191.42 1207.94,-175.79 1221.45,-163.7"/>
<polygon fill="black" stroke="black" points="1169.34,-415.73 1176.04,-423.94 1175.92,-413.34 1169.34,-415.73"/>
<polygon fill="black" stroke="black" points="1223.9,-166.21 1229.15,-157.02 1219.31,-160.93 1223.9,-166.21"/>
<text text-anchor="middle" x="1173.5" y="-286.8" font-family="Times,serif" font-size="14.00">24, 0</text>
</g>
<!-- 27 -->
<g id="node23" class="node">
<title>27</title>
<polygon fill="ivory" stroke="black" points="1311,-244 1191,-244 1191,-208 1311,-208 1311,-244"/>
<text text-anchor="middle" x="1251" y="-222.3" font-family="Times,serif" font-size="14.00">Ident&lt;result&gt;</text>
</g>
<!-- 24&#45;&gt;27 -->
<g id="edge33" class="edge">
<title>24&#45;&gt;27</title>
<path fill="none" stroke="black" stroke-dasharray="5,2" d="M1178.5,-413.74C1175.13,-386.05 1173.18,-342.45 1187,-308 1189.23,-302.45 1192.17,-302.59 1196,-298 1208.42,-283.14 1221.73,-265.98 1232.15,-252.26"/>
<polygon fill="black" stroke="black" points="1175.07,-414.43 1179.89,-423.87 1182,-413.49 1175.07,-414.43"/>
<polygon fill="black" stroke="black" points="1235,-254.3 1238.23,-244.21 1229.41,-250.08 1235,-254.3"/>
<text text-anchor="middle" x="1205.5" y="-330.3" font-family="Times,serif" font-size="14.00">24, 1</text>
</g>
<!-- 28 -->
<g id="node24" class="node">
<title>28</title>
<polygon fill="ivory" stroke="black" points="1325,-352 1233,-352 1233,-316 1325,-316 1325,-352"/>
<text text-anchor="middle" x="1279" y="-330.3" font-family="Times,serif" font-size="14.00">Ident&lt;nl&gt;</text>
</g>
<!-- 24&#45;&gt;28 -->
<g id="edge35" class="edge">
<title>24&#45;&gt;28</title>
<path fill="none" stroke="black" stroke-dasharray="5,2" d="M1205.35,-416.32C1220.63,-399.46 1240.8,-377.17 1256.18,-360.2"/>
<polygon fill="black" stroke="black" points="1202.54,-414.21 1198.42,-423.97 1207.73,-418.91 1202.54,-414.21"/>
<polygon fill="black" stroke="black" points="1259.18,-362.1 1263.3,-352.34 1253.99,-357.4 1259.18,-362.1"/>
<text text-anchor="middle" x="1246.5" y="-394.8" font-family="Times,serif" font-size="14.00">24, 2</text>
</g>
<!-- 26&#45;&gt;24 -->
<!-- 27&#45;&gt;26 -->
<!-- 28&#45;&gt;27 -->
</g>
</svg>
